<?xml version="1.0" encoding="UTF-8"?><svg id="b" xmlns="http://www.w3.org/2000/svg" width="208.898" height="339.451" viewBox="0 0 208.898 339.451"><defs><style>.e{fill:#3d8dcc;}.f{fill:#fff;}.g{fill:#211715;}.h{fill:#b3b3b3;}.i{fill:#645d5c;}</style></defs><g id="c"><g id="d"><path class="f" d="M104.684,261.561c-6.855-15.239-11.424-27.531-16.385-42.225-6.3-18.663-11.75-39.088-15.409-58.211l.862-.618c-.728-1.962.213-4.682,1.492-6.164,2.173-2.517,4.911-6.157,7.132-8.642.944.764,20.184,15.935,21.643,16.969h3.39c1.459-1.034,20.699-16.205,21.643-16.969,2.221,2.485,4.959,6.125,7.132,8.642,1.279,1.482,2.22,4.202,1.492,6.164l.502.363c-4.109,19.555-8.98,39.817-15.519,58.344-5.407,15.321-8.903,26.65-15.876,42.347h-2.101Z"/><path class="f" d="M153.771,80.601c1.552-1.491,3.642-2.051,5.431-1.988,3.893.137,5.549,2.243,6.262,3.479,2.128,3.69,2.038,10.49.61,14.698-1.011,2.98-2.669,7.538-6.663,10.806-1.646,1.347-4.069,2.234-6.385,1.843l-.613-.104c-.734,2.429-1.642,4.808-2.196,5.963-1.586,4.304-10.184,19.15-21.163,25.449v4.955c-.944.764-20.184,15.935-21.643,16.969h-3.39c-1.459-1.034-20.699-16.205-21.643-16.969,0,0,0-2.206-.003-5.033-4.522-2.499-8.652-6.157-12.605-10.889-5.755-6.887-9.031-14.306-10.841-20.453-2.469.636-5.138-.281-6.908-1.73-3.995-3.268-5.652-7.827-6.663-10.806-1.428-4.207-1.518-11.007.61-14.698.713-1.236,2.369-3.342,6.262-3.479,1.789-.063,3.879.497,5.431,1.988,0,0-10.053-48.13,48.056-48.13s48.056,48.13,48.056,48.13Z"/><path class="h" d="M106.785,261.561c6.973-15.697,10.469-27.026,15.876-42.347,7.302-20.69,12.525-43.544,16.931-65.163,1.651.405,7.553,1.835,7.553,1.835,2.957,1.725,5.414,3.666,7.545,5.894,10.634,3.804,20.814,8.351,29.797,13.282,3.015,1.623,7.4,5.416,10.459,9.999,3.486,5.23,5.767,10.119,7.334,17.103,1.688,7.565,3.311,25.238,3.629,36.113.636,22.135.559,36.519-2.171,55.244-1.074,7.378-2.686,16.555-5.69,23.374-2.861,6.523-6.819,11.172-12.981,14.735-12.191,7.049-29.053,4.901-42.461,3.815-13.011-1.052-28.606-5.588-37.603-9.619-9.841,3.098-19.595,5.708-25.272,6.736-12.169,2.215-26.904,5.833-39.139,4.056-12.235-1.765-22.957-7.225-28.976-18.024-5.043-9.056-7.148-21.707-7.751-32.046-.932-16.171-1.042-30.423-.658-47.504.318-14.625,1.37-30.456,4.539-40.784,1.513-4.923,4.166-10.744,7.905-15.228,3.629-4.331,8.946-8.529,14.132-10.777,9.129-3.954,18.003-7.387,27.324-10.843,2.037-2.084,4.394-3.892,7.177-5.525,0,0,5.996-.216,7.595-.273,3.623,20.661,9.511,43.252,16.421,63.722,4.96,14.695,9.529,26.986,16.385,42.225h2.101Z"/><path class="i" d="M157.647,33.091c-2.17-3.591-4.908-6.666-8.266-9.7l-7.674-6.822c-9.948-11.085-23.172-14.15-36.204-14.15-13.671,0-25.652,3.882-36.56,12.018-2.438,1.819-7.212,6.253-10.304,10.73-6.68,6.537-12.009,20.82-11.61,34.984.055,5.74.502,12.338,2.335,19.011.786-.304,1.731-.511,2.865-.551,1.789-.063,3.879.497,5.431,1.988l2.153,1.509c.238-3.198.337-4.98.939-8.634.999-6.069,7.297-8.867,9.973-14.284,1.542-3.121,2.459-6.769,5.096-8.99,1.986-1.672,4.636-2.239,7.192-2.508,3.959-.417,17.35.18,21.829,1.007,3.789.213,7.461.97,12.865,1.657,2.931.373,8.367,1.332,10.446,1.749,8.176,1.88,11.309,3.921,15.416,9.484,1.574,2.132,3.249,6.023,4.799,11.088l5.404,7.921c1.552-1.491,3.642-2.051,5.431-1.988,1.039.037,1.919.213,2.663.476,1.78-7.086,2.54-12.414,2.264-18.937-.529-12.515-2.591-20.619-6.483-27.061Z"/><path class="g" d="M56.942,23.471c-4.75,4.717-7.71,11.146-9.654,17.466-2.352,7.646-2.93,15.548-2.537,23.502.244,4.929.883,9.853,2.105,14.639.764,2.991,5.394,1.723,4.629-1.276-1.892-7.414-2.472-15.376-1.941-23.008.481-6.919,2.241-13.951,5.382-20.153,1.435-2.833,3.149-5.531,5.411-7.777,2.195-2.18-1.199-5.574-3.394-3.394h0Z"/><path class="g" d="M143.404,14.873C134.744,5.32,122.673.905,110.016.151c-12.796-.763-26.098,1.303-37.262,7.862-3.257,1.913-6.412,4.15-9.059,6.856-2.696,2.755-4.942,5.926-7.128,9.088-.738,1.067-.197,2.665.861,3.284,1.192.697,2.544.208,3.284-.861,1.805-2.61,3.64-5.202,5.812-7.524,2.051-2.194,4.381-4.004,6.904-5.623,5.031-3.229,10.557-5.476,16.38-6.806,5.873-1.341,11.94-1.746,17.952-1.575,5.437.155,10.843.928,16.007,2.678,6.281,2.129,11.796,5.831,16.243,10.737,2.079,2.294,5.466-1.109,3.394-3.394h0Z"/><path class="g" d="M164.335,79.079c1.221-4.986,2.129-10.06,2.237-15.203.102-4.832-.327-9.715-1.024-14.493-1.002-6.874-3.078-13.681-7.081-19.429-2.122-3.048-4.643-5.767-7.39-8.259-2.283-2.072-5.688,1.313-3.394,3.394,4.39,3.983,8.062,8.449,10.24,13.853,2.906,7.212,3.751,15.273,3.856,22.988.073,5.399-.792,10.643-2.073,15.872-.735,3,3.893,4.28,4.629,1.276h0Z"/><path class="g" d="M105.479,46.387c-3.913-.703-7.946-.886-11.911-1.063-3.618-.162-7.351-.405-10.961.015-3.067.357-6.09,1.107-8.485,3.166-2.06,1.771-3.212,4.267-4.248,6.717-.897,2.12-1.815,4.124-3.339,5.874-1.538,1.765-3.297,3.329-4.775,5.147-1.839,2.261-3.025,4.628-3.472,7.523-.482,3.122-.717,6.255-.964,9.402-.102,1.294,1.176,2.4,2.4,2.4,1.383,0,2.298-1.102,2.4-2.4.343-4.365.069-9.579,2.807-13.244,2.645-3.54,6.288-6.081,8.187-10.196.987-2.14,1.714-4.468,3.082-6.411,1.418-2.013,3.689-2.765,6.033-3.123,3.28-.5,6.739-.248,10.037-.123,2.342.089,4.684.216,7.02.4,1.012.08,2.024.169,3.033.281.201.022,1.21.149.745.084.379.053.758.112,1.135.18,1.274.229,2.587-.346,2.952-1.676.319-1.162-.394-2.722-1.676-2.952h0Z"/><path class="g" d="M127.515,54.422c2.346.545,5.137,1.31,6.949,2.182.926.446,1.793.973,2.638,1.556.454.313-.018-.035.309.231.173.142.345.286.513.433.403.353.789.724,1.162,1.108,1.555,1.604,2.712,3.079,3.762,5.081,1.38,2.631,2.333,5.473,3.207,8.304.908,2.943,5.543,1.687,4.629-1.276-.994-3.221-2.121-6.458-3.69-9.45-1.163-2.216-2.773-4.259-4.513-6.053-3.714-3.829-8.598-5.564-13.688-6.745-3.006-.698-4.289,3.929-1.276,4.629h0Z"/><path class="g" d="M120.317,48.787c-.746-3.177-3.234-5.889-5.735-7.836-4.151-3.231-9.074-4.911-14.25-5.591-1.287-.169-2.4,1.224-2.4,2.4,0,1.437,1.109,2.23,2.4,2.4,2.095.275,4.499.92,6.574,1.773-.347-.143.271.121.336.151.256.117.51.238.761.363.451.224.896.463,1.332.715.416.241.824.495,1.223.762.207.138.412.28.614.426.089.064.584.437.177.122.661.512,1.288,1.071,1.873,1.667.248.252.488.512.719.78.128.148.244.31.377.453.111.14.07.085-.125-.164.064.085.127.17.189.256.356.52.699,1.043.977,1.611.031.063.187.307.164.353,0-.002-.204-.6-.058-.117.076.252.163.496.224.753.296,1.262,1.737,2.01,2.952,1.676,1.292-.355,1.974-1.686,1.676-2.952h0Z"/><path class="g" d="M59.356,78.904c-3.174-2.872-7.819-3.479-11.673-1.61-2.834,1.374-4.462,4.196-5.168,7.168-1.648,6.938.11,14.845,4.119,20.702,2.907,4.247,7.055,7.321,12.408,6.59,1.286-.176,1.987-1.822,1.676-2.952-.381-1.386-1.663-1.852-2.952-1.676-3.769.515-6.676-3.527-8.208-6.407-1.473-2.768-2.542-5.899-2.771-9.035-.127-1.742-.122-3.54.21-5.26.149-.771.33-1.577.627-2.303.135-.33.311-.652.496-.957.053-.088.504-.716.171-.295,1.65-2.082,5.398-2.625,7.67-.569,2.286,2.068,5.691-1.316,3.394-3.394h0Z"/><path class="g" d="M155.468,82.298c1.272-1.151,3.02-1.494,4.683-1.19,1.373.252,2.237.812,2.987,1.759-.334-.421.118.208.171.295.185.305.361.626.496.957.297.726.478,1.532.627,2.303.332,1.721.337,3.518.21,5.26-.229,3.137-1.298,6.267-2.771,9.035-1.533,2.881-4.439,6.922-8.208,6.407-1.283-.175-2.577.309-2.952,1.676-.308,1.12.384,2.776,1.676,2.952,8.747,1.194,13.832-7.417,16.098-14.623,1.131-3.598,1.271-7.571.696-11.279-.485-3.129-1.78-6.137-4.447-7.982-3.831-2.651-9.29-2.015-12.661,1.035-2.296,2.077,1.107,5.463,3.394,3.394h0Z"/><path class="g" d="M151.006,105.17c-.718,3.497-2.027,6.86-3.281,9.944.285-.701.038-.088-.041.082-.091.197-.181.394-.274.59-.244.512-.501,1.018-.767,1.519-.581,1.099-1.201,2.177-1.848,3.239-3.484,5.722-7.736,11.135-12.946,15.385-2.835,2.313-6.038,4.155-9.582,4.973-3.009.694-1.735,5.323,1.276,4.629,7.311-1.687,13.391-7.039,18.157-12.591,3.945-4.596,7.636-9.77,10.128-15.32.122-.271.237-.544.352-.818.028-.067.398-.955.253-.618-.158.366.05-.099.087-.181.137-.307.265-.618.394-.928.196-.472.385-.947.566-1.426.883-2.342,1.649-4.747,2.153-7.201.26-1.269-.368-2.593-1.676-2.952-1.187-.326-2.69.401-2.952,1.676h0Z"/><path class="g" d="M55.658,106.275c1.6,7.062,4.465,13.91,8.477,19.943,4.351,6.544,10.075,12.673,17.006,16.51,3.52,1.949,7.358,3.271,11.338,3.859,1.281.189,2.579-.319,2.952-1.676.311-1.131-.386-2.762-1.676-2.952-14.219-2.099-24.81-14.371-30.262-26.976-1.388-3.209-2.434-6.576-3.206-9.983-.682-3.011-5.311-1.737-4.629,1.276h0Z"/><path class="g" d="M154.533,164.265c9.224,3.222,18.162,7.102,26.742,11.783,3.277,1.788,6.218,4.199,8.809,6.875,2.926,3.022,5.118,6.735,6.863,10.546,3.035,6.625,4.012,14.007,4.886,21.174.964,7.9,1.717,15.856,1.985,23.812.604,17.932.272,35.81-2.274,53.594-1.351,9.437-3.23,19.494-8.713,27.508-4.854,7.095-12.522,11.029-20.763,12.791-8.661,1.852-17.679,1.555-26.461.927-9.945-.711-19.524-2.911-28.907-6.268-2.127-.761-4.235-1.573-6.327-2.424-1.201-.488-2.637.531-2.952,1.676-.377,1.373.47,2.462,1.676,2.952,9.563,3.885,19.491,6.92,29.752,8.236,9.151,1.174,18.737,1.61,27.916.57s18.37-3.819,25.282-10.247c7.229-6.723,10.684-16.428,12.66-25.871,1.941-9.274,2.966-18.843,3.609-28.29.632-9.283.669-18.592.485-27.891-.172-8.694-.675-17.337-1.589-25.986-.804-7.608-1.537-15.467-3.842-22.798-1.363-4.336-3.343-8.439-5.806-12.254-2.518-3.898-5.831-7.094-9.501-9.901-3.395-2.597-7.255-4.482-11.078-6.363-4.53-2.228-9.164-4.247-13.865-6.086-2.419-.946-4.858-1.839-7.31-2.696-1.224-.427-2.625.487-2.952,1.676-.363,1.323.448,2.523,1.676,2.952h0Z"/><path class="f" d="M133.975,304.627c-3.106-.135-5.593-.447-6.833-1.012-2.406-9.947-5.566-20.681-9.016-29.4-.112-.281-.244-.548-.399-.798,1.039-.461,1.692-.75,1.692-.75,6.479-2.872,10.218-3.892,16.982-5.843,6.052-1.754,12.52-3.574,20.863-3.585,3.713,0,7.599,1.071,10.992,2.224-2.585,13.311-5.926,27.251-9.229,38.063l-.239.028c-5.777.671-17.169,1.407-24.813,1.074Z"/><path class="f" d="M34.866,260.655c-.674-.83-1.238-1.681-1.639-2.594-.752-1.712-.237-3.444.653-4.454.876-.995,2.71-1.935,4.802-1.582,0,0,.476.08.953.161l-.964-2.046c-.991-2.105-.498-4.289.779-5.704,1.097-1.215,3.224-1.712,5.006-1.52,1.888.204,3.989,1.178,5.649,2.648,8.208,7.267,23.315,21.999,30.948,29.697,0,0,1.164,1.099,2.436,2.301-12.976,3.084-26.268,6.192-37.872,9.044l-.781-.839c-3.106-2.68-8.073-8.356-9.794-10.549-.822-1.063-1.699-2.127-2.116-3.41s-.186-3.278.713-4.276c1.695-1.89,3.919-1.525,6.963-.986-2.05-2.179-4.183-3.979-5.736-5.892Z"/><path class="g" d="M42.426,289.872c13.946-3.477,27.948-6.727,41.931-10.051,7.036-1.673,14.07-3.358,21.09-5.097,1.676-.415,3.351-.834,5.025-1.256,1.245-.314,2.43-.742,3.674-.191s1.712,1.678,2.171,2.874c.616,1.604,1.203,3.22,1.767,4.843,2.471,7.107,4.54,14.356,6.351,21.658.429,1.728.841,3.461,1.237,5.197.362,1.589.879,3.243,1.065,4.862.335,2.916-2.43,3.76-4.62,4.619-11.486,4.507-23.38,8.204-35.345,11.206-5.473,1.373-11.026,2.35-16.566,3.407-7.248,1.383-14.57,2.68-21.97,2.747-11.977.108-25.163-3.928-32.454-14.018-3.931-5.44-5.966-11.971-7.349-18.468-1.477-6.936-2.087-13.993-2.57-21.057-1.075-15.728-1.299-31.567-.643-47.32.315-7.571.917-15.158,2.118-22.643,1.026-6.398,2.41-12.864,5.23-18.738,3.148-6.558,7.869-11.806,14.02-15.695,3.197-2.021,6.69-3.51,10.162-4.988s7-2.845,10.535-4.174c3.617-1.36,7.249-2.678,10.875-4.016,1.215-.448,2.041-1.627,1.676-2.952-.321-1.17-1.73-2.127-2.952-1.676-7.702,2.842-15.429,5.616-22.977,8.854-3.6,1.544-7.188,3.114-10.467,5.278s-6.362,4.698-8.953,7.642c-9.849,11.19-11.975,27.102-13.29,41.383-1.508,16.382-1.414,33.028-.676,49.451.349,7.77.798,15.574,1.827,23.288.982,7.359,2.507,14.672,5.491,21.502,2.701,6.182,6.967,11.437,12.503,15.296,5.356,3.733,11.722,5.965,18.124,7.06,7.669,1.311,15.366.734,23.019-.393,7.004-1.03,14.006-2.383,20.935-3.831,12.124-2.534,24.105-6.339,35.74-10.547,2.901-1.049,5.841-2.089,8.655-3.359,3.395-1.532,5.188-5.229,4.597-8.848s-1.566-7.214-2.452-10.767c-.963-3.858-2.003-7.697-3.132-11.51-1.085-3.667-2.251-7.312-3.532-10.915-1.178-3.311-2.088-7.156-5.259-9.13-3.323-2.069-6.856-.802-10.329.066-3.53.882-7.064,1.748-10.6,2.605-14.974,3.629-29.986,7.098-44.961,10.721-3.335.807-6.667,1.622-9.996,2.452-2.996.747-1.727,5.377,1.276,4.629h0Z"/><path class="g" d="M160.618,306.493c5.519-17.378,9.392-35.412,12.264-53.405.744-4.664,1.4-9.345,1.89-14.043.135-1.291-1.2-2.4-2.4-2.4-1.41,0-2.265,1.105-2.4,2.4-1.846,17.688-5.587,35.311-10.069,52.503-1.196,4.586-2.479,9.151-3.914,13.669-.937,2.951,3.695,4.214,4.629,1.276h0Z"/><path class="g" d="M125.783,305.626c1.958.949,4.2,1.134,6.341,1.295,2.949.222,5.916.218,8.871.162,5.936-.114,11.894-.451,17.793-1.129,1.288-.148,2.4-.997,2.4-2.4,0-1.182-1.104-2.549-2.4-2.4-5.684.653-11.422.984-17.141,1.115-2.916.067-5.84.08-8.753-.096-.582-.035-1.163-.078-1.743-.135-.265-.026-.529-.056-.794-.087-.181-.023-.146-.017.105.016-.135-.019-.269-.04-.404-.061-.418-.073-.836-.146-1.247-.252-.197-.051-.39-.122-.587-.171-.627-.155.296.152-.02,0-1.166-.565-2.594-.318-3.284.861-.616,1.053-.31,2.716.861,3.284h0Z"/><path class="g" d="M120.63,274.74c7.034-3.103,14.528-5.255,21.971-7.138,3.892-.984,7.834-1.686,11.848-1.89,2.249-.114,4.483-.118,6.704.298s4.394,1.068,6.535,1.791c2.933.991,4.192-3.644,1.276-4.629-4.597-1.553-9.187-2.49-14.056-2.282-4.458.19-8.885.914-13.212,1.989-7.993,1.987-15.947,4.388-23.489,7.715-1.186.523-1.462,2.255-.861,3.284.715,1.223,2.093,1.386,3.284.861h0Z"/><path class="g" d="M82.751,273.563c-8.071-8.135-16.292-16.135-24.668-23.957-1.88-1.755-3.769-3.5-5.688-5.212-2.493-2.225-5.57-4.067-9.039-3.911-3.441.155-6.53,2.069-7.388,5.542-.946,3.83,1.356,6.985,3.958,9.506,5.1,4.941,10.143,9.941,15.243,14.883,2.22,2.151,5.618-1.24,3.394-3.394-3.964-3.841-7.888-7.724-11.823-11.594-1.128-1.109-2.283-2.188-3.419-3.289-.977-.947-2.148-1.998-2.608-3.318-.89-2.553,1.547-3.832,3.744-3.503,2.365.353,4.106,2.067,5.796,3.598,1.832,1.659,3.643,3.34,5.445,5.031,3.964,3.719,7.883,7.486,11.779,11.276,3.991,3.882,7.96,7.786,11.881,11.738,2.179,2.196,5.573-1.198,3.394-3.394h0Z"/><path class="g" d="M38.681,249.625c-2.972-.384-6.272,1.1-7.563,3.887-1.563,3.374.111,6.55,2.308,9.151,2.147,2.542,4.657,4.833,6.982,7.213,2.367,2.423,4.762,4.818,7.283,7.082,2.293,2.058,5.699-1.325,3.394-3.394-4.058-3.643-7.776-7.633-11.606-11.509-.902-.913-1.831-1.803-2.659-2.785-.604-.716-1.388-1.682-1.54-2.634-.309-1.944,1.97-2.395,3.401-2.21,1.288.167,2.4-1.222,2.4-2.4,0-1.435-1.108-2.233-2.4-2.4h0Z"/><path class="g" d="M46.534,284.07c-3.229-2.81-6.108-6.097-8.844-9.38-.55-.66-1.101-1.324-1.594-2.028-.324-.462-.671-.958-.855-1.491-.026-.076-.136-.714-.101-.364-.026-.265-.023-.561.002-.826-.023.236.106-.448.108-.456.137-.47-.089-.005.171-.39-.211.311.229-.233.306-.294-.235.186.292-.165.353-.194-.35.164.264-.065.346-.085.458-.112-.087-.051.368-.042.672.013,1.318.043,1.986.13,1.287.169,2.4-1.224,2.4-2.4,0-1.437-1.109-2.231-2.4-2.4-2.985-.391-6.33.335-7.738,3.319-.73,1.548-.916,3.379-.498,5.044.439,1.747,1.613,3.183,2.697,4.569,2.96,3.788,6.269,7.524,9.897,10.682.977.85,2.433.961,3.394,0,.869-.869.982-2.54,0-3.394h0Z"/><path class="e" d="M113.41,245.404c2.138-5.669,4.021-11.12,6.038-16.959-.193-1.293-.346-2.225-.399-2.319-2.109-18.086-4.903-39.625-4.903-40.259,0-1.138.259-2.264.517-3.376.129-.505.246-1.009.349-1.514.556-2.51-.091.149.556-2.51,0,0,.776-4.077.821-4.298-3.07-4.137-6.732-8.97-8.98-11.498h-3.39c-2.313,2.602-6.125,7.646-9.249,11.86.165.343.272.567.272.567.862,1.797,1.099,3.583,1.587,5.161.609,1.944,1.219,3.943,1.254,5.979.017,1.045-2.821,20.781-5.502,39.672,0,0-.287,1.557-.63,3.417,3.771,10.618,7.681,20.562,12.932,32.235h2.101c2.598-5.848,4.713-11.09,6.624-16.158Z"/><path class="g" d="M113.406,181.512c-5.015-.002-10.029-.105-15.044-.107-1.255,0-2.458,1.104-2.4,2.4s1.055,2.399,2.4,2.4c5.015.002,10.029.105,15.044.107,1.255,0,2.458-1.104,2.4-2.4s-1.055-2.4-2.4-2.4h0Z"/><path class="g" d="M114.003,173.884c-.476,1.994-.788,4.018-1.212,6.023-.411,1.947-1.116,3.98-1.045,5.99.047,1.343.311,2.707.475,4.039.872,7.071,1.765,14.139,2.631,21.21.611,4.992,1.213,9.984,1.796,14.979.15,1.287.996,2.4,2.4,2.4,1.181,0,2.551-1.104,2.4-2.4-.989-8.477-2.032-16.948-3.086-25.417-.602-4.835-1.439-9.704-1.794-14.565-.103-1.41.376-2.79.678-4.151.502-2.27.845-4.57,1.385-6.832.717-3.003-3.911-4.284-4.629-1.276h0Z"/><path class="g" d="M94.696,226.547c1.211-8.529,2.431-17.057,3.631-25.588.434-3.087.867-6.174,1.283-9.263.23-1.708.548-3.442.655-5.164.11-1.771-.356-3.639-.841-5.33-.704-2.457-1.253-4.982-2.309-7.316-.534-1.181-2.248-1.467-3.284-.861-1.214.71-1.397,2.098-.861,3.284.837,1.849,1.192,3.995,1.76,5.942.392,1.345.813,2.767.743,4.183-.025.517-.111,1.036-.175,1.549-.048.388-.098.777-.149,1.165-.032.245-.064.491-.097.736-.047.353-.075.562-.071.536-.905,6.723-1.871,13.437-2.825,20.153-.696,4.899-1.394,9.799-2.089,14.698-.182,1.282.314,2.578,1.676,2.952,1.125.309,2.769-.385,2.952-1.676h0Z"/><path class="g" d="M99.241,122.756c.353-.186.708-.365,1.069-.533.083-.039.464-.184.091-.042-.401.152.08-.027.126-.043.261-.093.521-.186.786-.267.717-.22,1.449-.374,2.189-.493-.355.057.058-.007.205-.023.215-.023.431-.043.647-.059.522-.039,1.045-.058,1.568-.061.488-.003.975.008,1.462.037.225.013.449.029.673.05.004,0,.801.097.356.033.731.105,1.457.265,2.163.486.303.095.595.211.893.32-.566-.208.005.013.226.129.182.096.362.198.536.308.196.123.808.59.082.024,1.021.796,2.398.996,3.394,0,.829-.829,1.028-2.593,0-3.394-2.702-2.105-6.108-2.77-9.482-2.792-3.315-.021-6.474.628-9.406,2.176-1.146.605-1.495,2.199-.861,3.284.679,1.16,2.133,1.468,3.284.861h0Z"/><path class="g" d="M105.027,98.959c.411,1.568.806,3.16,1.042,4.765l-.086-.638c.028.22.04.437.018.658l.086-.638c-.016.102-.038.198-.072.296l.242-.573c-.03.069-.062.128-.104.19l.375-.486c-.049.06-.095.105-.156.153l.486-.375c-.12.077-.248.14-.377.2l.573-.242c-.208.087-.414.15-.636.186l.638-.086c-.201.024-.397.022-.597-.001l.638.086c-.225-.031-.446-.086-.671-.116-.319-.1-.638-.114-.957-.043-.319.014-.617.109-.892.285-.498.291-.973.862-1.103,1.434-.14.614-.11,1.304.242,1.849.312.484.835,1.022,1.434,1.103.509.069,1.002.198,1.52.221.791.035,1.527-.207,2.234-.531.872-.399,1.553-1.181,1.785-2.121.196-.795.112-1.493-.023-2.289-.259-1.535-.614-3.057-1.009-4.562-.318-1.214-1.729-2.072-2.952-1.676-1.25.404-2.018,1.651-1.676,2.952h0Z"/><path class="g" d="M79.689,85.476c-.796,2.586-.277,8.535,4.622,9.041,6.475-.039,6.82-7.231,4.64-10.613-1.785-2.769-7.032-3.92-9.262,1.572Z"/><path class="g" d="M131.742,85.476c.796,2.586.277,8.535-4.622,9.041-6.475-.039-6.82-7.231-4.64-10.613,1.785-2.769,7.032-3.92,9.262,1.572Z"/><path class="f" d="M82.377,145.702c-2.221,2.485-4.959,6.125-7.132,8.642-1.279,1.482-2.22,4.202-1.492,6.164.835,1.667,10.064,16.466,16.279,20.447,1.964-2.617,10.098-13.907,13.989-18.284-1.459-1.034-20.699-16.205-21.643-16.969Z"/><path class="f" d="M129.053,145.702c2.221,2.485,4.959,6.125,7.132,8.642,1.279,1.482,2.22,4.202,1.492,6.164-.835,1.667-10.064,16.466-16.279,20.447-1.964-2.617-10.098-13.907-13.989-18.284,1.459-1.034,20.699-16.205,21.643-16.969Z"/><path class="g" d="M80.68,144.005c-1.38,1.556-2.678,3.181-3.98,4.802-1.286,1.601-2.764,3.134-3.918,4.832-1.79,2.632-2.283,6.105-.644,8.893,2.812,4.784,6.076,9.38,9.599,13.663,2.077,2.525,4.329,5.03,7.084,6.833,1.173.767,2.539.134,3.284-.861,4.469-5.966,8.671-12.206,13.614-17.798,1.093-1.236.818-2.836-.486-3.769-.308-.22-.607-.454-.907-.685-.117-.089-.233-.179-.349-.269.276.212.294.228.031.024-.332-.258-.664-.515-.996-.773-1.68-1.307-3.355-2.62-5.03-3.934-3.678-2.885-7.351-5.776-11.02-8.672-.963-.76-1.932-1.515-2.887-2.285-1.008-.813-2.409-.985-3.394,0-.841.841-1.014,2.576,0,3.394,6.127,4.943,12.358,9.766,18.568,14.604,1.18.919,2.344,1.87,3.561,2.74l-.486-3.769c-5.213,5.897-9.651,12.478-14.364,18.77l3.284-.861c-.816-.534-1.419-1.049-2.329-1.924-.979-.941-1.898-1.943-2.784-2.971-1.877-2.176-3.598-4.479-5.247-6.83-1.351-1.926-2.657-3.887-3.896-5.887-.35-.566-.732-1.131-1.03-1.727-.033-.065-.079-.127-.105-.195.194.496.057-.172.05-.336-.027-.702.199-1.44.501-2.066.786-1.629,2.302-3.015,3.429-4.417,1.39-1.73,2.771-3.469,4.244-5.13,2.043-2.304-1.34-5.711-3.394-3.394Z"/><path class="g" d="M127.356,147.399c2.454,2.767,4.929,5.672,7.132,8.642.373.503.647,1.072.832,1.668.097.312.172.628.2.952.018.208-.037.93.002.789.065-.231-.126.23-.192.347-.168.296-.345.587-.521.878-2.608,4.301-5.495,8.495-8.708,12.366-.984,1.185-2.004,2.343-3.093,3.434-.501.502-1.016.99-1.553,1.453-.641.551-.554.488-1.267.954l3.284.861c-4.713-6.292-9.151-12.872-14.364-18.77l-.486,3.769c2.748-1.966,5.365-4.145,8.023-6.23,3.72-2.918,7.435-5.841,11.146-8.771.988-.78,1.981-1.553,2.96-2.343,1.01-.815.848-2.546,0-3.394-.998-.998-2.382-.817-3.394,0-6.051,4.882-12.206,9.645-18.337,14.424-.384.299-.768.598-1.152.896-.167.13-.335.259-.502.389-.433.336.339-.259-.064.049-.366.28-.727.566-1.101.834-1.304.933-1.578,2.533-.486,3.769,4.943,5.592,9.145,11.832,13.614,17.798.746.996,2.099,1.636,3.284.861,5.114-3.345,8.904-8.88,12.339-13.814,1.407-2.021,2.772-4.076,4.046-6.184.394-.652.819-1.309,1.047-2.042.633-2.035.156-4.26-.716-6.144-.905-1.953-2.6-3.557-3.939-5.22-1.523-1.891-3.025-3.802-4.637-5.619-2.054-2.316-5.438,1.089-3.394,3.394Z"/><path class="g" d="M77.011,71.298c-.544.666-1.159,1.265-1.837,1.794l.486-.375c-.77.591-1.608,1.082-2.501,1.463l.573-.242c-.256.107-.514.205-.776.294-.594.202-1.111.551-1.434,1.103-.301.514-.429,1.273-.242,1.849.188.581.548,1.141,1.103,1.434.552.292,1.238.45,1.849.242,2.376-.807,4.578-2.213,6.173-4.168.415-.508.703-1.017.703-1.697,0-.589-.261-1.292-.703-1.697-.457-.42-1.058-.732-1.697-.703-.598.027-1.302.218-1.697.703h0Z"/><path class="g" d="M108.858,262.773c5.588-12.607,10.08-25.591,14.607-38.605,4.879-14.025,9.093-28.174,12.552-42.619,1.969-8.222,3.757-16.486,5.461-24.766.261-1.268-.369-2.593-1.676-2.952-1.188-.326-2.69.401-2.952,1.676-3.007,14.612-6.273,29.184-10.341,43.542-3.809,13.442-8.515,26.639-13.234,39.785-2.609,7.269-5.432,14.454-8.562,21.516-.525,1.184-.345,2.578.861,3.284,1.022.598,2.756.33,3.284-.861h0Z"/><path class="g" d="M69.952,158.431c5.098,27.927,13.144,55.341,23.282,81.844,2.903,7.59,6.048,15.085,9.378,22.497.531,1.182,2.25,1.466,3.284.861,1.217-.712,1.394-2.097.861-3.284-11.519-25.643-20.548-52.518-27.187-79.827-1.882-7.741-3.558-15.531-4.988-23.368-.233-1.276-1.782-1.998-2.952-1.676-1.342.369-1.91,1.673-1.676,2.952h0Z"/><path class="g" d="M126.893,260.078c5.561-9.394,10.932-18.902,16.336-28.386,6.58-11.548,13.168-23.07,19.028-35.008.98-1.996,2.422-4.154,2.568-6.413.151-2.33-1.209-4.022-2.689-5.638-2.914-3.182-6.278-5.997-10.014-8.164v4.145c1.594-.977,3.207-1.921,4.845-2.821,1.63-.896,3.386-1.627,4.978-2.578,1.585-.946,2.309-2.763,1.718-4.518-.502-1.492-1.53-2.943-2.367-4.267-3.295-5.208-7.627-9.482-12.939-12.616-2.666-1.573-5.084,2.574-2.423,4.145,4.145,2.445,7.679,5.663,10.397,9.646.711,1.043,1.375,2.118,2,3.214.129.226.256.453.382.681.095.173.19.346.283.52.103.261.137.23.102-.094l.425-.855-.42.205c-.343.1-.721.358-1.045.521-2.851,1.439-5.636,3.003-8.358,4.672-1.523.934-1.585,3.225,0,4.145,3.034,1.76,5.728,3.96,8.164,6.48.797.825,2.438,1.997,2.108,3.293-.206.806-.757,1.619-1.121,2.367-.454.933-.911,1.864-1.371,2.794-3.423,6.922-7.032,13.749-10.849,20.462-5.298,9.318-10.595,18.636-15.93,27.932-2.63,4.583-5.259,9.167-7.951,13.714-1.577,2.664,2.571,5.082,4.145,2.423h0Z"/><path class="g" d="M63.074,153.814c-5.314,3.135-9.64,7.409-12.939,12.616-.839,1.325-1.856,2.776-2.367,4.267-.603,1.758.144,3.569,1.718,4.518,1.52.916,3.212,1.612,4.774,2.466,1.708.934,3.39,1.915,5.05,2.933v-4.145c-3.242,1.881-6.208,4.254-8.836,6.924-1.364,1.385-2.955,2.864-3.588,4.744-.691,2.054.028,3.89.92,5.736,3.61,7.469,7.402,14.85,11.456,22.088,5.561,9.929,11.241,19.795,16.904,29.667,2.77,4.829,5.537,9.659,8.373,14.45,1.572,2.656,5.723.244,4.145-2.423-5.269-8.901-10.363-17.908-15.485-26.894-6.116-10.73-12.314-21.413-17.866-32.451-1.001-1.99-1.987-3.987-2.959-5.991-.34-.7-1.027-1.616-.975-2.428.045-.689.713-1.225,1.15-1.706,2.69-2.963,5.719-5.56,9.186-7.572,1.585-.92,1.523-3.211,0-4.145-2.656-1.628-5.371-3.157-8.15-4.567-.347-.176-.695-.35-1.045-.523-.139-.069-.279-.138-.419-.206-.461-.278-.389-.027.215.753l.008.268c.093-.174.187-.348.282-.521.156-.286.315-.571.476-.854.625-1.097,1.288-2.172,2-3.214,2.718-3.983,6.252-7.2,10.397-9.646,2.659-1.569.246-5.719-2.423-4.145h0Z"/></g></g></svg>