<?xml version="1.0" encoding="UTF-8"?><svg id="b" xmlns="http://www.w3.org/2000/svg" width="349.005" height="305.793" viewBox="0 0 349.005 305.793"><defs><style>.e{fill:#fff;}.f{fill:#f8b8b4;}.g{fill:#211715;}.h{fill:#645d5c;}</style></defs><g id="c"><g id="d"><path class="e" d="M180.875,232.703c6.57,20.873,15.194,48.35,19.892,63.374.827,2.646-.386,5.318-2.575,6.575l-.537.308c.283-.118.567-.236.567-.236,12.083-5.042,51.207-22.425,58.625-25.833l-4.46-9.952s-60.61-30.402-71.512-34.236Z"/><path class="h" d="M151.324,127.09c-6.236,1.211-12.294-8.028-12.472-12.708-.654-17.156,2.599-30.4-.856-49.696-1.211-25.167,5.012-40.353,17.851-51.045,6.495-5.408,18.575-11.725,34.262-11.197,9.148.308,15.658,2.071,21.793,4.639,3.031,1.098,6.187,3.081,9.246,5.419l6.119,5.199c.088.073.166.155.234.227,7.471,7.747,13.607,20.238,13.837,32.099.091,4.174.033,15.267.144,18.722.351,10.794,2.494,20.5,5.078,30.208,1.273,4.798,3.273,9.377,2.885,16.309-.201,3.536-1.63,8.079-6.1,10.365l-92.021,1.46Z"/><path class="e" d="M194.87,38.354c1.661,4.637,4.036,9.897,5.575,12.928,2.465,4.852,8.815,13.084,14.351,15.581l10.108,2.597c1.442-1.092,3.282-1.386,4.813-1.196,3.332.415,4.601,2.266,5.12,3.331,1.549,3.186.967,8.736-.577,12.068-1.087,2.356-2.753,5.626-6.423,7.986-1.083.692-3.746,1.69-6.339,1.634-.214.542-.364.923-.364.923-.761,1.704-2.589,4.699-2.589,4.699-.773,1.213-1.571,2.4-2.418,3.568.027.187.043.295.043.295.198,1.099.8,4.216,1.256,5.236.979,2.189,2.74,4.056,4.828,5.237,1.688.954,4.27,1.987,6.651,2.877-11.155,10.646-26.691,20.457-42.522,21.38-4.931.287-10.022-.192-14.47-2.339s-8.177-6.155-9.111-11.005v-5.93c-2.188-1.099-4.322-2.466-6.43-4.099-7.563-5.857-11.039-15.32-12.483-25.848-.861-6.282-1.644-13.133-2.751-19.949,1.249-.855,2.381-1.753,3.005-2.243,7.299-5.714,15.099-12.752,22.218-19.399-.203,2.976-.52,5.839-1.004,8.827-.122.754.594,1.384,1.317,1.138,11.156-3.795,21.423-10.309,28.094-18.543"/><path class="g" d="M225.57,19.399c5.429,5.27,9.332,12.544,11.526,19.727,1.115,3.649,1.773,7.377,1.847,11.194.054,2.778.048,5.558.056,8.337.02,6.841.055,13.615.961,20.413,1.104,8.289,3.064,16.441,5.426,24.455,1.88,6.378,3.926,16.205-3.253,20.034-2.726,1.455-.305,5.6,2.423,4.145,7.397-3.946,8.099-12.809,6.763-20.204-.657-3.634-1.915-7.134-2.846-10.701-1.156-4.43-2.208-8.89-3.015-13.398-1.323-7.39-1.626-14.764-1.651-22.248-.023-6.927.296-13.907-1.364-20.691-2.177-8.897-6.86-18.029-13.479-24.455-2.218-2.153-5.615,1.238-3.394,3.394h0Z"/><path class="g" d="M222.359,10.43C210.448,1.396,194.026-1.53,179.432.729c-11.805,1.827-23.008,7.651-30.896,16.673s-11.533,20.295-12.666,32.029c-.343,3.557-.459,7.134-.414,10.706.026,2.068.05,4.123.395,6.164s.622,4.092.829,6.152c.751,7.476.558,14.972.189,22.463-.178,3.608-.374,7.215-.46,10.827-.081,3.419-.403,7.146.289,10.514,1.101,5.36,5.513,11.22,10.822,12.922,1.463.469,2.942.48,4.442.225,1.279-.217,1.995-1.793,1.676-2.952-.372-1.354-1.67-1.894-2.952-1.676-.675.114-1.722-.09-2.51-.474-1.069-.521-1.973-1.262-2.801-2.106-1.678-1.712-3.068-3.925-3.755-6.101-.078-.248-.15-.499-.212-.751-.034-.14-.159-.796-.136-.623.026.197-.023-.46-.028-.556-.023-.504-.034-1.009-.046-1.514-.042-1.754-.045-3.509-.021-5.263.049-3.432.211-6.86.382-10.287.351-7.027.676-14.058.215-21.089-.123-1.876-.296-3.749-.522-5.616-.248-2.048-.707-4.1-.878-6.153-.292-3.504-.179-7.111-.007-10.619.533-10.878,3.119-21.676,9.683-30.521,6.172-8.316,15.342-14.051,25.52-16.686,6.948-1.798,14.223-2.007,21.32-1.029,6.142.847,12.63,2.661,18.023,5.784,1.752,1.015,3.409,2.18,5.021,3.403,1.034.784,2.685.163,3.284-.861.72-1.232.175-2.498-.861-3.284h0Z"/><path class="g" d="M209.979,112.86c3.315-2.968,6.224-6.323,8.78-9.962,1.656-2.358,3.25-4.853,4.446-7.48.537-1.179.337-2.583-.861-3.284-1.031-.603-2.744-.324-3.284.861-1.158,2.545-2.692,4.96-4.286,7.252-2.322,3.338-5.072,6.428-8.19,9.22-.966.865-.881,2.513,0,3.394.96.96,2.426.867,3.394,0h0Z"/><path class="g" d="M198.478,113.997c-10.243,5.037-22.461,7.692-33.273,2.738-4.953-2.27-9.584-5.614-12.643-10.179-3.078-4.594-4.753-9.926-5.776-15.32-1.432-7.552-2.023-15.269-3.225-22.861-.203-1.281-1.803-1.992-2.952-1.676-1.365.375-1.88,1.667-1.676,2.952,1.14,7.202,1.783,14.487,3.011,21.673,1.016,5.944,2.823,11.923,6.078,17.047,6.64,10.454,19.339,16.326,31.558,15.771,7.527-.342,14.603-2.695,21.322-6,1.163-.572,1.482-2.222.861-3.284-.694-1.186-2.116-1.435-3.284-.861h0Z"/><path class="g" d="M226.115,71.532c1.347-.949,2.899-1.163,4.464-.637.651.219,1.027.459,1.426.817.076.069.513.573.209.183.152.195.286.413.404.63,1.341,2.477.785,6.212-.037,8.833-.871,2.777-2.581,5.513-4.816,7.388-1.889,1.585-5.372,2.944-7.92,1.857-1.191-.508-2.572-.356-3.284.861-.59,1.009-.338,2.772.861,3.284,3.495,1.491,7.366,1.008,10.76-.568,3.095-1.437,5.558-4.391,7.169-7.33,1.647-3.006,2.62-6.206,2.778-9.642.141-3.078-.4-6.524-2.647-8.806-2.981-3.028-8.341-3.444-11.79-1.015-1.058.746-1.555,2.098-.861,3.284.612,1.047,2.219,1.611,3.284.861h0Z"/><path class="g" d="M194.243,73.593c.737,2.108.495,7.032-3.53,7.602-5.343.17-5.852-5.752-4.159-8.61,1.386-2.34,5.679-3.453,7.689,1.008Z"/><path class="g" d="M162.071,73.883c.684,2.048.479,6.823-3.213,7.362-4.901.146-5.389-5.6-3.846-8.366,1.263-2.265,5.198-3.33,7.059,1.004Z"/><path class="g" d="M170.24,83.407c-.742,1.375-1.437,2.776-2.034,4.22l.242-.573c-.322.705-.599,1.378-.605,2.169-.007.956.418,1.856,1.158,2.456.571.463,1.193.868,1.929,1.009.468.09.928.099,1.397.148.574.06,1.305-.311,1.697-.703.416-.416.73-1.099.703-1.697-.028-.621-.232-1.264-.703-1.697-.496-.455-1.03-.633-1.697-.703-.231-.024-.464-.021-.694-.052l.638.086c-.166-.027-.322-.07-.478-.133l.573.242c-.164-.074-.312-.164-.457-.269l.486.375c-.106-.083-.208-.168-.3-.267l.375.486c-.032-.039-.059-.081-.082-.126l.242.573c-.03-.072-.049-.136-.064-.213l.086.638c-.011-.107-.009-.207.003-.313l-.086.638c.037-.226.109-.437.197-.648l-.242.573c.122-.277.239-.557.356-.836l-.242.573c.514-1.207,1.123-2.381,1.745-3.535.302-.56.413-1.228.242-1.849-.153-.557-.584-1.16-1.103-1.434-1.118-.59-2.647-.319-3.284.861h0Z"/><path class="g" d="M192.555,38.992c2.132,5.902,4.548,12.052,8.08,17.278,3.27,4.839,7.536,10.141,12.949,12.665,1.174.547,2.587.33,3.284-.861.608-1.039.319-2.733-.861-3.284-4.794-2.236-8.547-6.914-11.416-11.224-3.21-4.824-5.448-10.425-7.407-15.85-.44-1.219-1.633-2.039-2.952-1.676-1.177.323-2.119,1.727-1.676,2.952h0Z"/><path class="g" d="M193.068,36.408c-3.42,4.185-7.522,7.735-12.051,10.673-2.375,1.54-4.851,2.923-7.399,4.155-1.197.579-2.41,1.129-3.643,1.629-1.345.546-2.816,1.271-4.249,1.523h1.276c.458,1.418.717,1.77.777,1.055.024-.156.048-.312.071-.468.058-.388.113-.776.166-1.164.114-.828.222-1.657.318-2.488.178-1.543.314-3.09.423-4.64.154-2.18-2.674-3.025-4.097-1.697-4.265,3.98-8.571,7.919-12.977,11.742-4.03,3.496-8.098,7.161-12.583,10.07-2.583,1.675-.179,5.832,2.423,4.145,4.695-3.045,8.979-6.862,13.203-10.516,4.53-3.918,8.951-7.961,13.33-12.047l-4.097-1.697c-.16,2.267-.372,4.533-.702,6.782-.192,1.31-.567,2.614.106,3.855.494.91,1.368,1.494,2.363,1.696,1.119.228,2.142-.238,3.171-.615,1.053-.385,2.097-.797,3.131-1.23,1.93-.807,3.833-1.672,5.693-2.632,7.075-3.654,13.684-8.55,18.741-14.738.82-1.003.981-2.413,0-3.394-.846-.846-2.57-1.009-3.394,0h0Z"/><path class="g" d="M213.855,103.406c.266,1.466.546,2.943.96,4.375.584,2.018,1.814,3.86,3.307,5.323,1.525,1.494,3.344,2.513,5.28,3.367,2.134.942,4.316,1.768,6.507,2.565,1.182.43,2.68-.482,2.952-1.676.308-1.354-.411-2.492-1.676-2.952-.972-.354-1.943-.712-2.909-1.085-.459-.177-.918-.358-1.374-.542-.225-.091-.45-.183-.674-.277.383.161-.224-.098-.298-.131-.837-.367-1.672-.752-2.467-1.205-.393-.224-.769-.471-1.137-.734.359.257-.156-.128-.225-.187-.201-.172-.396-.352-.586-.537-.35-.343-.689-.706-.987-1.095.246.321-.111-.176-.158-.246-.126-.188-.246-.379-.359-.575s-.221-.393-.322-.595c-.067-.134-.131-.27-.193-.407l.16.372c.025-.217-.221-.684-.279-.893-.373-1.361-.643-2.753-.895-4.141-.225-1.238-1.795-2.051-2.952-1.676-1.328.43-1.917,1.626-1.676,2.952h0Z"/><path class="g" d="M172.118,104.344c.089-.045.179-.087.267-.132.343-.174-.148.058-.148.059-.002-.038.551-.198.608-.216.464-.147.937-.261,1.415-.349.117-.022.235-.037.351-.06.337-.067-.448.046-.102.011.242-.024.483-.052.726-.069.518-.037,1.038-.048,1.556-.031.241.008.482.021.722.041.119.01.237.023.355.034.347.034-.015.048-.115-.017.145.095.499.086.674.124.215.047.428.1.64.161.202.059.401.126.598.2.06.022.555.22.25.095-.276-.113.128.058.175.08.555.252,1.093.536,1.618.846,1.082.639,2.68.281,3.284-.861.61-1.155.294-2.601-.861-3.284-2.275-1.345-4.691-2.135-7.339-2.219-2.42-.077-4.928.343-7.098,1.443-1.122.568-1.534,2.239-.861,3.284.739,1.146,2.083,1.469,3.284.861h0Z"/><path class="g" d="M200.265,64.286c-.187-.009-.372-.026-.557-.05l.638.086c-.51-.074-1.004-.211-1.48-.406l.573.242c-.496-.21-.96-.478-1.389-.805l.486.375c-.388-.302-.736-.645-1.042-1.031-.356-.449-1.152-.703-1.697-.703-.589,0-1.292.261-1.697.703-.42.457-.732,1.058-.703,1.697l.086.638c.114.407.32.76.617,1.059.276.348.586.665.932.944.496.401,1.001.788,1.571,1.076,1.162.587,2.36.912,3.662.974.597.028,1.282-.288,1.697-.703s.73-1.099.703-1.697c-.028-.621-.232-1.264-.703-1.697-.482-.442-1.037-.672-1.697-.703h0Z"/><path class="f" d="M285.579,191.316c-1.073-4.33-2.216-8.503-3.337-12.648-2.222-8.224-7.701-29.207-15.556-40.545-8.946-12.914-21.596-17.663-37.544-22.237-11.172,10.735-26.817,20.681-42.761,21.61-4.931.287-10.022-.192-14.47-2.339s-8.177-6.155-9.111-11.005c0,0-.333-1.731-.853-4.228-.515.171-.916.316-1.153.421-7.55,2.6-15.89,6.61-20,11.38-6.28,7.29-9.55,17.24-10.89,23.74-1.04,5.11-6.22,25.2-8.43,38.97-.92,5.7-.23,10.12.77,12.79l.277.646c18.205.083,34.544.146,44.197.211,3.817.026,7.178,2.501,8.329,6.14,3.011,9.522,7.916,25.11,12.851,40.818,3.127-4.008,5.961-8.426,9.82-11.817,2.88-2.531,6.415-4.478,10.234-4.813,1.58-.139,3.171,0,4.749.161,3.004.307,6,.699,8.982,1.174,5.421.864,11.493,1.878,15.833-1.789,6.674,5.9,12.614,18.626,14.871,28.983,7.883-2.972,19.894-8.281,27.66-14.515,6.125-4.917,8.503-10.077,10.001-14.869.869-2.779,1.395-9.652,1.306-12.722-.111-3.833-1.828-14.194-2.751-19.291-.86-5.012-1.904-9.704-3.024-14.225Z"/><path class="e" d="M227.948,271.389c-4.153,3.339-7.29,7.869-11.591,12.351-.618.644-3.15,2.332-5.103.827-1.284-.989-1.469-3.477-1.005-4.491,2.528-5.526,3.564-7.198,5.442-11.069-2.289,2.412-4.075,4.434-6.787,7.175-.921.931-1.842,1.862-2.763,2.793-2.717,2.746-5.434,5.493-8.149,8.24-2.902-9.263-6.506-20.751-10.094-32.175,3.127-4.008,5.961-8.426,9.82-11.816,2.88-2.531,6.415-4.478,10.234-4.813,1.58-.139,3.171,0,4.749.161,3.004.307,6,.699,8.982,1.174,5.423.865,11.496,1.878,15.836-1.792,5.62,4.974,10.722,14.79,13.539,23.952-1.131.565-1.888.999-2.914,1.701-.627.429-2.644,2.216-3.312,2.579-5.592,3.04-11.238,4.452-16.549,5.114"/><path class="g" d="M288.131,248.017c6.59-.002,13.181-.016,19.771-.024,10.341-.013,20.682-.026,31.023-.038,2.587-.003,5.174-.009,7.761-.009,3.089,0,3.094-4.8,0-4.8-6.76,0-13.52.016-20.279.024-10.294.013-20.588.026-30.882.038-2.465.003-4.929.008-7.394.009-3.089,0-3.094,4.801,0,4.8h0Z"/><path class="g" d="M2.318,248.025c11.852-.005,23.705-.047,35.557-.07,1.876-.004,3.752-.009,5.627-.01,3.089,0,3.094-4.801,0-4.8-11.988.002-23.975.046-35.963.07-1.741.003-3.481.009-5.222.01-3.089.001-3.094,4.801,0,4.8h0Z"/><path class="g" d="M236.969,232.412c4.927-2.089,9.661-4.524,14.473-6.855,1.133-.549,1.526-2.253.861-3.284-.749-1.162-2.072-1.448-3.284-.861-4.812,2.331-9.547,4.766-14.473,6.855-1.16.492-1.501,2.29-.861,3.284.778,1.207,2.042,1.388,3.284.861h0Z"/><path class="g" d="M235.385,236.575c-3.409,2.177-7.641,1.691-11.453,1.109-4.715-.72-9.536-1.661-14.317-1.728-9.748-.136-16.147,7.638-21.445,14.767-.774,1.041-.171,2.68.861,3.284,1.223.715,2.508.183,3.284-.861,2.502-3.367,5.095-6.931,8.553-9.387,1.623-1.153,3.379-2.095,5.31-2.608,2.068-.549,4.176-.414,6.286-.205,4.453.442,8.844,1.278,13.286,1.789,4.128.475,8.457.282,12.057-2.016,2.596-1.657.191-5.814-2.423-4.145h0Z"/><path class="g" d="M198.327,254.05c-2.447,2.425-4.893,4.851-7.34,7.276-.893.885-.952,2.52,0,3.394.962.883,2.441.945,3.394,0,2.447-2.425,4.893-4.851,7.34-7.276.893-.885.952-2.52,0-3.394-.962-.883-2.441-.945-3.394,0h0Z"/><path class="g" d="M199.006,274.933c3.704-4.325,7.756-8.348,11.804-12.348.894-.884.951-2.521,0-3.394-.963-.884-2.44-.943-3.394,0-4.048,4-8.1,8.022-11.804,12.348-.816.953-1.006,2.471,0,3.394.897.824,2.522,1.018,3.394,0h0Z"/><path class="g" d="M204.367,284.18c2.726-2.756,5.487-5.482,8.162-8.287,2.363-2.479,4.653-5.024,7.06-7.462.911-.922.921-2.473,0-3.394-.915-.915-2.481-.925-3.394,0-2.406,2.438-4.697,4.983-7.06,7.462-2.675,2.806-5.436,5.532-8.162,8.287-.912.921-.92,2.474,0,3.394s2.48.924,3.394,0h0Z"/><path class="g" d="M228.283,273.698c4.928-.63,9.673-1.769,14.246-3.739,1.943-.837,3.696-1.745,5.34-3.073.33-.266.655-.537.983-.806.161-.132.321-.263.484-.393.309-.246-.269.19-.039.031.957-.659,1.954-1.228,2.99-1.752,1.156-.585,1.487-2.213.861-3.284-.688-1.176-2.123-1.448-3.284-.861-1.677.848-3.17,1.849-4.619,3.038-.587.482-.979.837-1.429,1.129-.907.589-1.946,1.036-2.93,1.481-3.96,1.792-8.3,2.877-12.604,3.427-1.285.164-2.4.985-2.4,2.4,0,1.169,1.105,2.565,2.4,2.4h0Z"/><path class="g" d="M234.948,238.922c3.867,2.885,6.682,7.51,8.922,11.766,2.66,5.054,4.679,10.449,6.003,16.005.716,3.004,5.345,1.732,4.629-1.276-1.447-6.073-3.732-11.999-6.674-17.504-2.641-4.942-5.923-9.752-10.457-13.135-1.04-.776-2.681-.169-3.284.861-.716,1.225-.181,2.506.861,3.284h0Z"/><path class="g" d="M212.9,269.255c-.981,1.959-2.002,3.897-2.961,5.866-.695,1.427-1.513,2.882-2.032,4.383-.421,1.218-.355,2.665-.033,3.898.875,3.352,4.304,4.977,7.497,3.709,2.884-1.146,4.785-3.929,6.747-6.209,2.362-2.744,4.707-5.524,7.526-7.816,1.006-.818.85-2.544,0-3.394-.995-.995-2.385-.82-3.394,0-4.423,3.596-7.649,8.356-11.631,12.39-.062.063-.405.326-.136.131.288-.209-.313.184-.38.222-.112.064-.57.27-.219.133-.141.055-.712.219-.583.196-.322.057-.302.071-.609-.109.232.136-.134-.228.081.095-.079-.119-.147-.244-.211-.371.112.221.045.153.001-.039-.05-.217-.116-.428-.153-.648.078.455.016-.171.009-.324-.005-.1.02-.203.011-.302.005.053-.119.397-.026.177.032-.074.031-.17.057-.247.119-.352-.109.215.075-.177.531-1.13,1.054-2.264,1.602-3.386.943-1.932,1.944-3.834,2.906-5.755.58-1.158.308-2.6-.861-3.284-1.065-.623-2.701-.302-3.284.861h0Z"/><path class="g" d="M198.86,305.038c7.83-3.27,15.592-6.704,23.358-10.12,8.967-3.945,17.923-7.913,26.866-11.912,2.995-1.339,5.992-2.674,8.974-4.043,1.178-.541,1.469-2.244.861-3.284-.707-1.21-2.101-1.404-3.284-.861-15.649,7.186-31.447,14.073-47.236,20.945-2.115.92-4.231,1.838-6.35,2.748-.886.38-1.772.76-2.659,1.137-.198.084-1.359.575-.761.323-.349.147-.697.293-1.046.439-1.195.499-2.051,1.589-1.676,2.952.31,1.128,1.749,2.179,2.952,1.676h0Z"/><path class="e" d="M40.551,207.242c30.789.512,101.072.671,126.168.839,3.817.026,7.178,2.501,8.329,6.14,5.972,18.886,19.399,61.642,25.719,81.855,1.138,3.64-1.586,7.331-5.4,7.317-27.194-.096-100.462-.36-128.631-.93-2.429-.049-4.546-1.642-5.264-3.963-5.555-17.963-19.82-63.232-26.392-83.911-1.169-3.677,1.613-7.411,5.471-7.347Z"/><path class="g" d="M40.551,209.642c14.38.238,28.762.33,43.143.423,16.799.108,33.598.184,50.397.257,7.067.031,14.134.061,21.201.096,2.76.013,5.52.028,8.28.044,3.068.018,6.222-.167,8.25,2.622.941,1.293,1.278,2.939,1.753,4.442.472,1.493.943,2.986,1.414,4.479,1.124,3.564,2.247,7.128,3.369,10.692,2.607,8.283,5.212,16.567,7.814,24.852,2.564,8.163,5.126,16.326,7.685,24.491,1.079,3.443,2.158,6.886,3.236,10.329.776,2.48,3.053,6.784-.324,8.328-1.138.52-2.601.294-3.829.289-1.325-.005-2.65-.009-3.975-.014-3.057-.011-6.114-.022-9.171-.034-7.309-.028-14.617-.059-21.926-.092-16.627-.077-33.255-.167-49.882-.296-13.491-.105-26.983-.206-40.471-.469-1.505-.029-2.928-.387-3.617-1.89-.542-1.181-.81-2.581-1.196-3.822-.964-3.102-1.931-6.203-2.901-9.304-2.421-7.745-4.851-15.486-7.285-23.227-4.784-15.212-9.578-30.421-14.403-45.621-.421-1.327-1.204-2.86-.774-4.241.454-1.457,1.712-2.314,3.211-2.334,3.086-.04,3.095-4.84,0-4.8-5.086.066-8.996,4.662-7.955,9.717.322,1.562.942,3.101,1.424,4.62.524,1.652,1.048,3.304,1.571,4.957,2.503,7.903,4.999,15.808,7.491,23.714,4.937,15.662,9.871,31.326,14.747,47.007,1.103,3.547,1.849,7.463,5.562,9.211,2.807,1.321,6.541.858,9.591.906,6.846.107,13.692.182,20.538.249,16.911.164,33.823.267,50.735.355,14.978.078,29.957.14,44.936.194,1.351.005,2.701.01,4.052.015,1.725.006,3.445.092,5.08-.562,2.299-.918,4.057-2.821,4.779-5.197.653-2.148.116-4.154-.528-6.212-2.311-7.389-4.627-14.776-6.945-22.163-5.215-16.622-10.435-33.243-15.674-49.858-1.014-3.215-1.781-6.721-3.215-9.777-2.032-4.329-6.346-6.313-10.931-6.343-5.978-.038-11.957-.065-17.935-.092-16.598-.075-33.197-.142-49.795-.233-16.192-.088-32.384-.183-48.574-.381-2.984-.036-5.968-.077-8.952-.127-3.09-.051-3.091,4.749,0,4.8Z"/><path class="g" d="M124.559,206.587c-2.387-6.554-.471-13.784.856-20.364,1.387-6.881,2.973-13.719,4.587-20.55,1.107-4.684,2.008-9.468,3.335-14.095,1.944-6.78,4.995-14.074,10.064-19.133,2.907-2.901,6.651-4.937,10.332-6.681,3.905-1.85,7.988-3.297,12.12-4.546,2.949-.891,1.692-5.526-1.276-4.629-7.742,2.34-15.694,5.347-22.134,10.352-6.19,4.81-9.989,12.404-12.55,19.656-1.755,4.971-2.714,10.175-3.926,15.295-1.639,6.924-3.272,13.851-4.722,20.818-.874,4.201-1.765,8.43-2.312,12.689-.528,4.11-.435,8.53.998,12.463.443,1.217,1.63,2.04,2.952,1.676,1.174-.323,2.122-1.728,1.676-2.952h0Z"/><path class="g" d="M230.049,118.647c12.329,3.609,24.6,8.16,32.918,18.466,3.826,4.741,6.472,10.424,8.709,16.051,2.319,5.835,4.233,11.826,5.968,17.858,3.697,12.848,7.078,25.787,9.313,38.976,1.77,10.444,3.896,22.008-1.208,31.898-3.233,6.264-8.944,10.374-14.909,13.829-5.755,3.334-11.843,6.11-18.045,8.5-1.206.465-2.418.913-3.636,1.345s-2.037,1.638-1.676,2.952c.325,1.183,1.725,2.111,2.952,1.676,6.192-2.195,12.277-4.775,18.125-7.77,6.558-3.359,13.423-7.347,18.087-13.18,2.175-2.721,3.804-5.717,5.013-8.98,1.036-2.798,1.476-5.652,1.768-8.615.263-2.666.465-5.383.256-8.06-.233-2.985-.688-5.958-1.138-8.917-1.084-7.14-2.336-14.265-3.997-21.295-1.566-6.63-3.383-13.204-5.19-19.773-1.631-5.926-3.4-11.82-5.493-17.601-2.252-6.218-4.8-12.495-8.413-18.062-3.691-5.688-8.562-10.481-14.272-14.131s-12.163-6.131-18.611-8.197c-1.74-.558-3.49-1.084-5.243-1.597-2.971-.87-4.239,3.761-1.276,4.629h0Z"/><path class="g" d="M160.486,124.79c1.014,4.882,4.389,8.979,8.584,11.549,4.745,2.908,10.522,3.771,16.004,3.614,10.943-.313,21.457-4.586,30.599-10.399,5.149-3.274,9.965-7.086,14.416-11.256,2.259-2.117-1.14-5.506-3.394-3.394-7.11,6.662-15.258,12.477-24.28,16.252-4.432,1.854-9.176,3.26-13.965,3.77-4.829.514-9.954.395-14.506-1.473-4.302-1.766-7.866-5.305-8.829-9.939-.628-3.023-5.256-1.743-4.629,1.276h0Z"/><path class="e" d="M176.622,146.004c-.509-.424-1.035-.75-1.582-.977.558-1.409.916-2.315.916-2.315.502-1.269.018-3.339-1.026-4.439-.894-.942-2.116-1.312-3.427-1.389.607-1.27.991-2.073.991-2.073.436-.912.443-2.758,0-3.733-.235-.516-.732-1.311-1.189-1.645-.636-.464-2.309-.473-3.092-.396-4.667.458-8.745,1.284-12.698,2.709.53-1.18.8-1.9,1.51-3.13.78-1.33,2.2-2.05,3.51-2.78,2.49-1.39,5.04-2.9,7.42-4.47,1.78-1.18,1.84-2.97.99-4.43-.54-.94-1.211-1.437-2.34-1.71-2.196-.531-5.005.33-7.515,1.33-2.48.99-6.155,2.33-8.155,4.2-2.39,2.23-3.33,5.22-4.43,8.14-.61,1.61-1.9,6.18-2.43,7.83l-.65,3.844c-.184,1.088-.135,2.202.141,3.27,1.601,6.185,3.186,12.37,4.782,18.566.65,2.55,1.31,5.13,1.65,7.74l.047,2.591c5.644.577,13.28,1.402,19.185,2.187.167-.914.292-1.622.308-1.768.17-1.39.32-3.72.38-5.11.071-1.797.064-4.671.05-7.456.224.265.359.424.359.424.396,1.11,1.11,2.009,2.188,2.332.854.256,1.778.328,2.575-.072,1.2-.603,1.985-1.836,2.353-3.127.368-1.291.506-2.84.563-4.181.101-2.393.087-4.07.094-6.619.003-1.272-.499-2.528-1.477-3.341Z"/><path class="g" d="M146.389,137.363c.827-2.603,1.492-5.264,2.43-7.83,1.189-3.251,2.351-6.447,5.503-8.25,1.527-.873,3.158-1.524,4.789-2.169,1.816-.718,3.766-1.577,5.745-1.643.884-.03,2.628.31,2.214,1.491-.064.182-.783.63-1.084.824-.896.578-1.802,1.14-2.715,1.691-1.99,1.199-4.174,2.196-6.053,3.563-1.939,1.411-2.828,3.362-3.776,5.493-.526,1.183-.344,2.579.861,3.284,1.023.598,2.754.329,3.284-.861.411-.923.807-1.848,1.289-2.738.514-.949,1.288-1.423,2.21-1.944,2.207-1.25,4.412-2.498,6.557-3.854,2.101-1.328,4.107-2.74,4.228-5.458.096-2.16-1.189-4.405-3.066-5.454-4.279-2.39-9.921.468-13.935,2.188-1.968.843-3.898,1.814-5.508,3.251-1.742,1.556-2.897,3.628-3.795,5.753-1.566,3.707-2.59,7.562-3.806,11.387-.938,2.951,3.695,4.214,4.629,1.276h0Z"/><path class="g" d="M142.997,174.441c8.719.81,17.928,1.759,26.281,2.887,2.124.287,4.253.581,6.354,1.009l-1.762-2.314c-.643,9.466-1.544,18.777-3.318,28.113-.242,1.272.355,2.589,1.676,2.952,1.172.322,2.709-.396,2.952-1.676,1.853-9.754,2.818-19.5,3.489-29.389.067-.983-.788-2.116-1.762-2.314-4.406-.897-8.915-1.369-13.376-1.898-5.097-.604-10.201-1.146-15.308-1.66-1.742-.175-3.484-.348-5.227-.51-1.292-.12-2.4,1.189-2.4,2.4,0,1.398,1.104,2.28,2.4,2.4h0Z"/><path class="g" d="M148.53,137.716c4.286-2.51,8.817-4.343,13.684-5.37,2.2-.464,4.543-.941,6.799-.947.316,0,.982.196,1.216.137-.263.066-.247-.289-.318-.138-.007.015.407.678.372.596.271.629.167,1.515-.103,2.179-.488,1.201.53,2.637,1.676,2.952,1.373.377,2.462-.47,2.952-1.676,1.058-2.604.212-6.556-2.292-8.089-2.45-1.499-6.142-.567-8.762-.158-6.264.979-12.18,3.168-17.647,6.369-2.664,1.56-.251,5.71,2.423,4.145h0Z"/><path class="g" d="M155.869,142.687c4.017-1.693,8.306-2.49,12.587-3.192,1.284-.21,3.07-.455,4.158.028.414.184.702.455.879.838.088.19.246.796.245.787.075.558.072.431-.096.927-.415,1.228.478,2.623,1.676,2.952,1.313.361,2.535-.444,2.952-1.676.759-2.242-.015-5.09-1.644-6.774-1.726-1.785-4.299-2.253-6.685-2.072-2.542.193-5.105.72-7.598,1.237-2.649.548-5.255,1.266-7.751,2.318-1.194.503-2.052,1.586-1.676,2.952.309,1.125,1.75,2.183,2.952,1.676h0Z"/><path class="g" d="M158.965,149.478c3.405-.739,6.815-1.453,10.248-2.052,1.282-.224,2.909-.648,4.02-.46.62.104,1.192.331,1.687.732.424.343.477.569.603,1.007.333,1.158.179,2.976.159,4.436-.021,1.583-.014,3.197-.222,4.769-.143,1.078-.462,2.478-1.093,2.997-.429.353-.708.288-1.214.125-.101-.032-.384-.327-.512-.656-.468-1.208-1.612-2.045-2.952-1.676-1.154.317-2.147,1.737-1.676,2.952.686,1.771,1.755,3.245,3.602,3.916,1.815.659,3.84.465,5.4-.69,3.019-2.235,3.3-6.207,3.419-9.664.06-1.745.1-3.502.064-5.249-.033-1.586-.366-3.274-1.279-4.602-1.011-1.47-2.701-2.524-4.421-2.961-1.843-.468-3.623-.151-5.46.156-3.905.653-7.78,1.451-11.648,2.291-1.267.275-2.006,1.752-1.676,2.952.36,1.309,1.681,1.952,2.952,1.676h0Z"/><path class="g" d="M171.622,175.153c.72-3.42.739-7.04.753-10.524.013-3.355-.053-6.71-.017-10.064.033-3.09-4.767-3.092-4.8,0-.035,3.263.027,6.527.018,9.79-.009,3.133.065,6.447-.583,9.522-.267,1.267.373,2.594,1.676,2.952,1.192.328,2.684-.402,2.952-1.676h0Z"/><path class="g" d="M146.107,133.573c-2.373,1.505-4.491,3.921-4.993,6.765-.594,3.372.875,6.977,1.706,10.206.869,3.38,1.737,6.76,2.607,10.14.859,3.341,1.787,6.677,2.257,10.1.177,1.285,1.821,1.987,2.952,1.676,1.385-.381,1.853-1.663,1.676-2.952-.83-6.042-2.742-11.985-4.258-17.882-.741-2.881-1.765-5.825-2.219-8.765-.339-2.19.846-3.97,2.694-5.142,2.601-1.65.196-5.806-2.423-4.145h0Z"/><path class="g" d="M240.152,187.193c2.439,8.929,4.878,17.857,7.318,26.786.813,2.976,5.445,1.713,4.629-1.276-2.439-8.929-4.878-17.857-7.318-26.786-.813-2.976-5.445-1.713-4.629,1.276h0Z"/><path class="g" d="M288.845,94.805c3.164.925,6.738,1.787,9.97.655,2.637-.924,4.978-3.146,5.579-5.943,1.45-6.747-7.276-10.054-12.473-10.849-1.434-.219-3.041-.509-4.397.177-1.555.787-2.369,2.474-1.894,4.187.863,3.111,4.666,4.317,7.363,5.248,5.104,1.763,11.372,2.809,16.389.213,2.141-1.108,3.834-3.096,4.323-5.485.662-3.231-.801-6.537-3.129-8.754-2.207-2.101-5.029-3.438-7.732-4.771-2.538-1.251-5.153-2.43-7.886-3.187-2.574-.712-5.272-1.037-7.941-1.022-2.869.016-7.366.071-7.502,3.965-.11,3.166,2.968,4.959,5.373,6.258,2.488,1.344,5.057,2.543,7.701,3.548,5.236,1.991,10.758,2.925,16.321,3.413,2.878.252,5.719.054,8.313-1.345,2.576-1.39,4.461-4.023,4.633-6.984.335-5.771-5.736-10.102-10.108-12.637-5.133-2.977-10.871-5.426-16.573-7.063-4.271-1.226-10.253-2.698-14.356-.188-1.645,1.006-3.043,2.952-2.496,4.949.388,1.415,1.503,2.435,2.646,3.266,2.827,2.056,6.405,3.211,9.698,4.27,4.54,1.46,9.191,2.585,13.863,3.534,4.745.964,9.552,1.772,14.375,2.223,4.654.435,10.838-2.323,11.638-7.407.406-2.58-1.01-4.872-2.575-6.797-1.587-1.953-3.556-3.639-5.651-5.025-2.589-1.713-5.535-3.029-8.357-4.305-2.956-1.336-5.98-2.545-9.097-3.456-2.912-.851-5.889-1.404-8.908-1.691-1.292-.123-2.4,1.191-2.4,2.4,0,1.4,1.104,2.277,2.4,2.4,4.867.463,9.627,1.941,14.114,3.844,4.199,1.781,8.784,3.718,12.201,6.813,1.311,1.187,2.758,2.591,3.435,4.267-.072-.178.135.568.164.649-.079-.222-.002-.026-.055.196-.147.61-.578,1.178-1.135,1.656-2.67,2.287-6.104,1.676-9.282,1.247-7.764-1.048-15.541-2.679-23.015-5.039-2.894-.914-5.26-1.691-7.772-3.14-.244-.141-.486-.287-.722-.443-.072-.047-.67-.479-.38-.254.287.222-.25-.22-.332-.3-.093-.091-.495-.586-.248-.241.26.363-.066-.13-.111-.236-.004-.009.227.619.136.289-.06-.215.049-.229.035.357.007-.297-.038-.426-.161.628.008-.065.187-.345.212-.363-.234.163.197-.146.203-.149.375-.254.697-.358,1.438-.506.489-.098,1.503-.13,2.279-.102,2.027.073,4.024.497,5.98,1.015,4.605,1.219,9.079,3.097,13.339,5.213,3.568,1.772,7.549,3.863,9.801,7.271,1.08,1.635,1.428,3.374-.122,4.873-1.219,1.179-3.033,1.623-4.687,1.646-4.369.06-9.023-.834-13.219-2.002-4.245-1.182-8.226-3.009-12.057-5.169-.36-.203-.733-.391-1.053-.654-.027-.023-.631-.679-.633-.679l-.003.041c-.021.339-.174.639-.46.9.035.028.147-.033.177-.015.325.194,1.776-.116,2.171-.128,2.056-.061,4.106.055,6.118.495,4.265.934,8.339,2.973,12.111,5.122,1.879,1.071,3.817,2.42,4.483,4.589.468,1.522-.094,2.826-1.178,3.6-3.118,2.228-7.853,1.342-11.278.424-1.175-.315-2.334-.694-3.465-1.142-.514-.204-1.021-.426-1.518-.668-.069-.033-1.298-.86-1.275-.866-.108.026-.152,1.122-.279,1.283-.513.649-.765.171-.235.286.445.097.94.078,1.394.15,1.276.204,2.539.547,3.753.987,1.509.547,4.35,1.576,4.86,3.314.442,1.506-1.232,2.86-2.485,3.276-2.268.753-4.895-.125-7.08-.764-2.971-.868-4.24,3.762-1.276,4.629h0Z"/></g></g></svg>